# xmcd
#
# Track frame offsets: 
#        182
#        19142
#        36852
#        55347
#        73145
#        88775
#        109247
#        126687
#        143620
#        165762
#        181652
#
# Disc length: 2676 seconds
#
# Revision: 7
# Processed by: cddbd v1.5.2PL0 Copyright (c) Steve Scherf et al.
# Submitted via: ExactAudioCopy v1.0b3
#
DISCID=950a720b
DTITLE=Mr. Big - Bump Ahead
DYEAR=1993
DGENRE=Rock
TTITLE0=Colorado Bulldog
TTITLE1=Price You Gotta Pay
TTITLE2=Promise Her The Moon
TTITLE3=What's It Gonna Be
TTITLE4=Wild World
TTITLE5=Mr. Gone
TTITLE6=The Whole World's Gonna Know
TTITLE7=Nothing But Love
TTITLE8=Temperamental
TTITLE9=Ain't Seen Love Like That
TTITLE10=Mr. Big
EXTD=
EXTT0=
EXTT1=
EXTT2=
EXTT3=
EXTT4=
EXTT5=
EXTT6=
EXTT7=
EXTT8=
EXTT9=
EXTT10=
PLAYORDER=
